<svg width="1920" height="1266" viewBox="0 0 1920 1266" fill="none" xmlns="http://www.w3.org/2000/svg">
<g clip-path="url(#clip0_945_707)">
<mask id="mask0_945_707" style="mask-type:alpha" maskUnits="userSpaceOnUse" x="-139" y="0" width="2390" height="1266">
<path d="M2250.51 0H-138.548V1266H2250.51V0Z" fill="#D9D9D9"/>
</mask>
<g mask="url(#mask0_945_707)">
<g opacity="0.7" filter="url(#filter0_f_945_707)">
<path d="M960.5 1883.11C1450.96 1883.11 1848.55 1570.71 1848.55 1185.35C1848.55 799.982 1450.96 487.581 960.5 487.581C470.043 487.581 72.4482 799.982 72.4482 1185.35C72.4482 1570.71 470.043 1883.11 960.5 1883.11Z" fill="url(#paint0_linear_945_707)"/>
</g>
<g filter="url(#filter1_f_945_707)">
<path d="M981.199 2236.7C1564.95 2236.7 2038.18 1864.93 2038.18 1406.34C2038.18 947.751 1564.95 575.988 981.199 575.988C397.444 575.988 -75.7832 947.751 -75.7832 1406.34C-75.7832 1864.93 397.444 2236.7 981.199 2236.7Z" fill="url(#paint1_linear_945_707)"/>
</g>
<g filter="url(#filter2_d_945_707)">
<path d="M1342.43 1214.68C1610.29 1162.71 1784.45 1115.28 1924.67 1157.81V2442.15C1638.36 2383.29 1379.82 2434.81 1248.95 2449.48C825.965 2496.87 597.267 2442.15 447.7 2418.35C193.437 2377.89 40.398 2423.96 -15.6895 2435.46V1262.65C96.4855 1205.19 175.275 1193.98 535.838 1227.31C884.536 1259.55 936.463 1293.45 1342.43 1214.68Z" fill="white"/>
</g>
</g>
</g>
<defs>
<filter id="filter0_f_945_707" x="-27.5518" y="387.581" width="1976.1" height="1595.53" filterUnits="userSpaceOnUse" color-interpolation-filters="sRGB">
<feFlood flood-opacity="0" result="BackgroundImageFix"/>
<feBlend mode="normal" in="SourceGraphic" in2="BackgroundImageFix" result="shape"/>
<feGaussianBlur stdDeviation="50" result="effect1_foregroundBlur_945_707"/>
</filter>
<filter id="filter1_f_945_707" x="-175.783" y="475.988" width="2313.96" height="1860.71" filterUnits="userSpaceOnUse" color-interpolation-filters="sRGB">
<feFlood flood-opacity="0" result="BackgroundImageFix"/>
<feBlend mode="normal" in="SourceGraphic" in2="BackgroundImageFix" result="shape"/>
<feGaussianBlur stdDeviation="50" result="effect1_foregroundBlur_945_707"/>
</filter>
<filter id="filter2_d_945_707" x="-55.6895" y="1071.36" width="2100.36" height="1486.84" filterUnits="userSpaceOnUse" color-interpolation-filters="sRGB">
<feFlood flood-opacity="0" result="BackgroundImageFix"/>
<feColorMatrix in="SourceAlpha" type="matrix" values="0 0 0 0 0 0 0 0 0 0 0 0 0 0 0 0 0 0 127 0" result="hardAlpha"/>
<feOffset dx="40" dy="10"/>
<feGaussianBlur stdDeviation="40"/>
<feColorMatrix type="matrix" values="0 0 0 0 0.641667 0 0 0 0 0.849638 0 0 0 0 0.875 0 0 0 1 0"/>
<feBlend mode="normal" in2="BackgroundImageFix" result="effect1_dropShadow_945_707"/>
<feBlend mode="normal" in="SourceGraphic" in2="effect1_dropShadow_945_707" result="shape"/>
</filter>
<linearGradient id="paint0_linear_945_707" x1="353.409" y1="547.637" x2="338.381" y2="1606.38" gradientUnits="userSpaceOnUse">
<stop offset="0.0121435" stop-color="#FFC7A8" stop-opacity="0.1"/>
<stop offset="0.492135" stop-color="#F3BBE0" stop-opacity="0.29"/>
<stop offset="1" stop-color="white" stop-opacity="0"/>
</linearGradient>
<linearGradient id="paint1_linear_945_707" x1="258.622" y1="647.455" x2="240.742" y2="1907.38" gradientUnits="userSpaceOnUse">
<stop offset="0.0121435" stop-color="#FFC7A8" stop-opacity="0.12"/>
<stop offset="0.492135" stop-color="#FBB6CD" stop-opacity="0.33"/>
<stop offset="1" stop-color="white" stop-opacity="0"/>
</linearGradient>
<clipPath id="clip0_945_707">
<rect width="1923" height="1266" fill="white" transform="translate(-1)"/>
</clipPath>
</defs>
</svg>
