<svg width="30" height="30" viewBox="0 0 30 30" fill="none" xmlns="http://www.w3.org/2000/svg">
<path opacity="0.3" d="M4.56809 18.4977C9.93184 9.21022 16.4731 3.57897 25.6606 2.01772C25.8414 1.98546 26.0273 1.99737 26.2025 2.05242C26.3777 2.10747 26.537 2.20403 26.6669 2.3339C26.7968 2.46376 26.8933 2.62308 26.9484 2.79829C27.0034 2.9735 27.0153 3.15942 26.9831 3.34022C25.4218 12.5277 19.7906 19.069 10.5031 24.4327L4.56809 18.4977ZM4.27434 21.1715L2.79184 25.0602C2.73063 25.2207 2.71716 25.3954 2.75304 25.5634C2.78893 25.7313 2.87264 25.8853 2.99408 26.0067C3.11551 26.1282 3.26949 26.2119 3.43744 26.2478C3.60539 26.2837 3.78013 26.2702 3.94059 26.209L7.83184 24.7252L4.27434 21.1715ZM20.1256 6.99772C19.7548 6.99772 19.3922 7.10769 19.0839 7.31371C18.7756 7.51974 18.5352 7.81258 18.3933 8.15519C18.2514 8.4978 18.2143 8.8748 18.2866 9.23851C18.359 9.60223 18.5375 9.93632 18.7998 10.1985C19.062 10.4608 19.3961 10.6393 19.7598 10.7117C20.1235 10.784 20.5005 10.7469 20.8431 10.605C21.1857 10.4631 21.4786 10.2228 21.6846 9.91441C21.8906 9.60607 22.0006 9.24356 22.0006 8.87272C22.0006 8.37544 21.803 7.89853 21.4514 7.54689C21.0998 7.19526 20.6229 6.99772 20.1256 6.99772Z" fill="url(#paint0_linear_1143_614)"/>
<path d="M4.56779 18.4976L2.30904 16.2388C2.19381 16.1236 2.10684 15.9833 2.05494 15.8288C2.00304 15.6743 1.98763 15.51 2.00991 15.3485C2.03219 15.1871 2.09156 15.0331 2.18336 14.8984C2.27517 14.7638 2.3969 14.6523 2.53904 14.5726L10.9415 9.86133C8.46691 12.4645 6.32588 15.3656 4.56779 18.4976ZM10.5003 24.4301L12.759 26.6888C12.8743 26.8041 13.0146 26.891 13.1691 26.9429C13.3235 26.9948 13.4879 27.0102 13.6493 26.988C13.8107 26.9657 13.9648 26.9063 14.0994 26.8145C14.2341 26.7227 14.3456 26.601 14.4253 26.4588L19.1365 18.0551C16.5337 20.5305 13.6326 22.6719 10.5003 24.4301ZM8.30029 22.2288L15.229 15.3001C15.4226 15.0947 15.5285 14.822 15.5243 14.5398C15.5202 14.2577 15.4062 13.9882 15.2067 13.7887C15.0071 13.5891 14.7377 13.4752 14.4555 13.471C14.1733 13.4668 13.9006 13.5728 13.6953 13.7663L6.76654 20.6951L8.30029 22.2288Z" fill="url(#paint1_linear_1143_614)"/>
<defs>
<linearGradient id="paint0_linear_1143_614" x1="2.7334" y1="2" x2="27.368" y2="2.81571" gradientUnits="userSpaceOnUse">
<stop stop-color="#EF5B69"/>
<stop offset="1" stop-color="#E8335E"/>
</linearGradient>
<linearGradient id="paint1_linear_1143_614" x1="2" y1="9.86133" x2="19.3958" y2="10.4373" gradientUnits="userSpaceOnUse">
<stop stop-color="#EF5B69"/>
<stop offset="1" stop-color="#E8335E"/>
</linearGradient>
</defs>
</svg>
