<svg width="38" height="38" viewBox="0 0 38 38" fill="none" xmlns="http://www.w3.org/2000/svg">
<rect width="38" height="38" rx="19" fill="url(#paint0_radial_1242_1171)"/>
<path fill-rule="evenodd" clip-rule="evenodd" d="M6.31055 18.6181C6.31055 11.547 11.8525 6.30957 18.9997 6.30957C26.1469 6.30957 31.6889 11.5502 31.6889 18.6212C31.6889 25.6923 26.1469 30.9297 18.9997 30.9297C17.7149 30.9297 16.4841 30.7584 15.3262 30.4412C15.101 30.3809 14.8599 30.3968 14.6473 30.492L12.1285 31.6023C11.4687 31.8941 10.7264 31.4246 10.7042 30.7045L10.6344 28.4458C10.628 28.1667 10.5011 27.9065 10.2949 27.7226C7.8269 25.5146 6.31055 22.317 6.31055 18.6181ZM15.1071 16.3055L11.3796 22.2186C11.0212 22.7865 11.7191 23.4241 12.252 23.018L16.2555 19.979C16.5251 19.7728 16.8994 19.7728 17.1722 19.9758L20.1383 22.1996C21.0297 22.8658 22.2987 22.6342 22.8919 21.692L26.6225 15.782C26.9778 15.2142 26.2799 14.5734 25.7469 14.9795L21.7435 18.0185C21.4739 18.2247 21.0995 18.2247 20.8267 18.0217L17.8606 15.7979C16.9692 15.1317 15.7003 15.3633 15.1071 16.3055Z" fill="white"/>
<defs>
<radialGradient id="paint0_radial_1242_1171" cx="0" cy="0" r="1" gradientUnits="userSpaceOnUse" gradientTransform="translate(7.315 37.7961) scale(41.4048 41.4011)">
<stop stop-color="#0099FF"/>
<stop offset="0.6098" stop-color="#A033FF"/>
<stop offset="0.9348" stop-color="#FF5280"/>
<stop offset="1" stop-color="#FF7061"/>
</radialGradient>
</defs>
</svg>
