<svg width="38" height="38" viewBox="0 0 38 38" fill="none" xmlns="http://www.w3.org/2000/svg">
<rect width="38" height="38" rx="19" fill="black"/>
<path d="M24.2991 15.3017C26.0096 16.5288 28.1051 17.2508 30.3684 17.2508V12.8802C29.9401 12.8803 29.5128 12.8354 29.0938 12.7463V16.1867C26.8307 16.1867 24.7355 15.4647 23.0245 14.2376V23.1569C23.0245 27.6188 19.4203 31.2356 14.9746 31.2356C13.3157 31.2356 11.7739 30.7323 10.4932 29.8692C11.955 31.3692 13.9935 32.2997 16.2489 32.2997C20.6949 32.2997 24.2993 28.6829 24.2993 24.2208V15.3017H24.2991ZM25.8714 10.8922C24.9973 9.9338 24.4233 8.69518 24.2991 7.32583V6.76367H23.0912C23.3953 8.50411 24.4323 9.99104 25.8714 10.8922ZM13.3051 26.4453C12.8167 25.8026 12.5527 25.0164 12.5539 24.208C12.5539 22.1673 14.2025 20.5127 16.2363 20.5127C16.6154 20.5126 16.9921 20.5709 17.3534 20.6859V16.2175C16.9312 16.1595 16.5052 16.1348 16.0793 16.1439V19.6218C15.7178 19.5068 15.3409 19.4484 14.9617 19.4487C12.9279 19.4487 11.2794 21.1032 11.2794 23.1441C11.2794 24.5872 12.1034 25.8366 13.3051 26.4453Z" fill="#FF004F"/>
<path d="M23.0239 14.2376C24.7349 15.4646 26.8301 16.1866 29.0932 16.1866V12.7462C27.83 12.4762 26.7117 11.8137 25.8709 10.8922C24.4316 9.99094 23.3947 8.50402 23.0907 6.76367H19.918V24.2206C19.9108 26.2557 18.265 27.9036 16.2356 27.9036C15.0396 27.9036 13.9771 27.3315 13.3042 26.4453C12.1027 25.8366 11.2787 24.5872 11.2787 23.1442C11.2787 21.1035 12.9271 19.4488 14.961 19.4488C15.3506 19.4488 15.7262 19.5097 16.0785 19.6219V16.144C11.7109 16.2345 8.19824 19.816 8.19824 24.2207C8.19824 26.4195 9.07297 28.4128 10.4927 29.8693C11.7734 30.7323 13.3152 31.2357 14.9741 31.2357C19.4199 31.2357 23.024 27.6187 23.024 23.1569V14.2376H23.0239Z" fill="white"/>
<path d="M29.0933 12.7468V11.8165C27.9542 11.8182 26.8374 11.4981 25.8709 10.8927C26.7265 11.8327 27.8531 12.4808 29.0933 12.7468ZM23.0907 6.76418C23.0617 6.59785 23.0395 6.43042 23.024 6.26236V5.7002H18.6434V23.1573C18.6364 25.1922 16.9907 26.8401 14.9611 26.8401C14.3652 26.8401 13.8026 26.6981 13.3043 26.4459C13.9772 27.332 15.0397 27.904 16.2356 27.904C18.265 27.904 19.9109 26.2563 19.918 24.2212V6.76418H23.0907ZM16.0788 16.1445V15.1542C15.7128 15.1039 15.3437 15.0787 14.9742 15.0789C10.528 15.0788 6.92383 18.6958 6.92383 23.1573C6.92383 25.9545 8.34034 28.4195 10.4928 29.8696C9.07315 28.4132 8.19842 26.4198 8.19842 24.2211C8.19842 19.8165 11.711 16.235 16.0788 16.1445Z" fill="#00F2EA"/>
</svg>
