<svg width="38" height="38" viewBox="0 0 38 38" fill="none" xmlns="http://www.w3.org/2000/svg">
<rect width="38" height="38" rx="19" fill="#FF0000"/>
<path d="M32.014 12.4739C31.7009 11.3112 30.7842 10.3944 29.6214 10.0814C27.4972 9.5 19.0004 9.5 19.0004 9.5C19.0004 9.5 10.5035 9.5 8.37928 10.059C7.23891 10.372 6.29978 11.3112 5.98674 12.4739C5.42773 14.5981 5.42773 19.0031 5.42773 19.0031C5.42773 19.0031 5.42773 23.4304 5.98674 25.5322C6.29978 26.695 7.21655 27.6117 8.37928 27.9248C10.5259 28.5061 19.0004 28.5061 19.0004 28.5061C19.0004 28.5061 27.4972 28.5061 29.6214 27.9471C30.7842 27.6341 31.7009 26.7173 32.014 25.5546C32.573 23.4304 32.573 19.0254 32.573 19.0254C32.573 19.0254 32.5953 14.5981 32.014 12.4739Z" fill="white"/>
<path d="M16.2949 23.0727L23.3607 19.0031L16.2949 14.9336V23.0727Z" fill="#FF0000"/>
</svg>
